<svg xmlns="http://www.w3.org/2000/svg" viewBox="0 0 47 54" width="47" height="54">
	<defs>
		<linearGradient id="grd1" gradientUnits="userSpaceOnUse"  x1="0.938" y1="53.959" x2="46.845" y2="8.052">
			<stop offset="0" stop-color="#00ccff"  />
			<stop offset="1" stop-color="#5ddefe"  />
		</linearGradient>
		<linearGradient id="grd2" gradientUnits="userSpaceOnUse"  x1="27.101" y1="8.104" x2="34.508" y2="0.697">
			<stop offset="0" stop-color="#ffbc27"  />
			<stop offset="1" stop-color="#fde252"  />
		</linearGradient>
		<linearGradient id="grd3" gradientUnits="userSpaceOnUse"  x1="33.348" y1="24.595" x2="44.572" y2="13.371">
			<stop offset="0" stop-color="#ffbc27"  />
			<stop offset="1" stop-color="#fde252"  />
		</linearGradient>
	</defs>
	<style>
		tspan { white-space:pre }
		.shp0 { fill: url(#grd1) } 
		.shp1 { fill: url(#grd2) } 
		.shp2 { fill: url(#grd3) } 
	</style>
	<g id="Clear Night">
		<path id="moon" class="shp0" d="M46.8,37.03c0.12,-0.43 0,-0.89 -0.31,-1.2c-0.31,-0.31 -0.77,-0.43 -1.2,-0.31c-1.91,0.55 -3.86,0.83 -5.78,0.83c-11.55,0 -20.94,-9.39 -20.94,-20.94c0,-1.92 0.28,-3.87 0.83,-5.78c0.12,-0.43 0,-0.89 -0.31,-1.2c-0.31,-0.31 -0.77,-0.43 -1.2,-0.31c-9.97,2.86 -16.93,12.1 -16.93,22.47c0,12.9 10.49,23.39 23.39,23.39c10.37,0 19.61,-6.96 22.47,-16.93z" />
		<path id="star-01" class="shp1" d="M33.73,4.92c1.04,-0.28 1.04,-0.75 0,-1.03c-1.04,-0.28 -2.12,-1.37 -2.41,-2.41c-0.28,-1.04 -0.75,-1.04 -1.03,0c-0.28,1.04 -1.37,2.12 -2.41,2.41c-1.04,0.28 -1.04,0.75 0,1.03c1.04,0.28 2.12,1.37 2.41,2.41c0.28,1.04 0.75,1.04 1.03,0c0.28,-1.04 1.37,-2.12 2.41,-2.41z" />
		<path id="star-02" class="shp2" d="M43.39,19.76c1.58,-0.43 1.58,-1.13 0,-1.56c-1.58,-0.43 -3.22,-2.07 -3.65,-3.65c-0.43,-1.58 -1.13,-1.58 -1.56,0c-0.43,1.58 -2.07,3.22 -3.65,3.65c-1.58,0.43 -1.58,1.13 0,1.56c1.58,0.43 3.22,2.07 3.65,3.65c0.43,1.58 1.13,1.58 1.56,0c0.43,-1.58 2.07,-3.22 3.65,-3.65z" />
	</g>
</svg>