<svg xmlns="http://www.w3.org/2000/svg" viewBox="0 0 68 37" width="68" height="37">
	<defs>
		<linearGradient id="grd1" gradientUnits="userSpaceOnUse"  x1="38.467" y1="36.991" x2="61.457" y2="14">
			<stop offset="0" stop-color="#d6f2fd"  />
			<stop offset="1" stop-color="#e5f5fd"  />
		</linearGradient>
	</defs>
	<style>
		tspan { white-space:pre }
		.shp0 { fill: #ffffff } 
		.shp1 { fill: url(#grd1) } 
	</style>
	<g id="Mostly Cloudy">
		<path id="cloud-large" class="shp0" d="M47.24,36.96c5.92,0 10.72,-4.72 10.72,-10.54c0,-5.82 -4.8,-10.54 -10.72,-10.54c-0.04,0 -0.07,0.01 -0.11,0.01c-0.95,-8.41 -8.2,-14.94 -17.01,-14.94c-6.95,0 -12.94,4.08 -15.62,9.93c-0.08,0 -0.17,-0.01 -0.25,-0.01c-7.33,0 -13.27,5.84 -13.27,13.05c0,7.21 5.94,13.05 13.27,13.05" />
		<path id="cloud-small-dark" class="shp1" d="M61.18,36.99c3.74,0 6.77,-3.01 6.77,-6.73c0,-3.72 -3.03,-6.73 -6.77,-6.73c-0.02,0 -0.05,0 -0.07,0c-0.6,-5.37 -5.18,-9.54 -10.74,-9.54c-4.39,0 -8.17,2.6 -9.86,6.34c-0.05,0 -0.11,0 -0.16,0c-4.63,0 -8.38,3.73 -8.38,8.33c0,4.6 3.75,8.33 8.38,8.33" />
	</g>
</svg>