<svg xmlns="http://www.w3.org/2000/svg" viewBox="0 0 68 44" width="68" height="44">
	<defs>
		<linearGradient id="grd1" gradientUnits="userSpaceOnUse"  x1="38.934" y1="28.949" x2="67.868" y2="0.016">
			<stop offset="0" stop-color="#00ccff"  />
			<stop offset="1" stop-color="#5ddefe"  />
		</linearGradient>
		<linearGradient id="grd2" gradientUnits="userSpaceOnUse"  x1="59.101" y1="8.104" x2="66.508" y2="0.697">
			<stop offset="0" stop-color="#ffbc27"  />
			<stop offset="1" stop-color="#fde252"  />
		</linearGradient>
		<linearGradient id="grd3" gradientUnits="userSpaceOnUse"  x1="4.649" y1="10.566" x2="10.3" y2="4.915">
			<stop offset="0" stop-color="#ffbc27"  />
			<stop offset="1" stop-color="#fde252"  />
		</linearGradient>
		<linearGradient id="grd4" gradientUnits="userSpaceOnUse"  x1="11.462" y1="43.956" x2="47.485" y2="7.933">
			<stop offset="0" stop-color="#d6f2fd"  />
			<stop offset="1" stop-color="#e5f5fd"  />
		</linearGradient>
	</defs>
	<style>
		tspan { white-space:pre }
		.shp0 { fill: url(#grd1) } 
		.shp1 { fill: url(#grd2) } 
		.shp2 { fill: url(#grd3) } 
		.shp3 { fill: url(#grd4) } 
		.shp4 { fill: #ffffff } 
	</style>
	<g id="Party Cloudy Night">
		<path id="moon-small" class="shp0" d="M67.84,18.28c0.08,-0.27 0,-0.56 -0.2,-0.76c-0.2,-0.2 -0.49,-0.27 -0.76,-0.2c-1.21,0.35 -2.43,0.52 -3.64,0.52c-7.28,0 -13.2,-5.92 -13.2,-13.2c0,-1.21 0.18,-2.44 0.52,-3.64c0.08,-0.27 0,-0.56 -0.2,-0.76c-0.2,-0.2 -0.49,-0.27 -0.76,-0.2c-6.28,1.8 -10.67,7.63 -10.67,14.16c0,8.13 6.61,14.74 14.74,14.74c6.53,0 12.36,-4.39 14.16,-10.67z" />
		<path id="star-01" class="shp1" d="M65.73,4.92c1.04,-0.28 1.04,-0.75 0,-1.03c-1.04,-0.28 -2.12,-1.37 -2.41,-2.41c-0.28,-1.04 -0.75,-1.04 -1.03,0c-0.28,1.04 -1.37,2.12 -2.41,2.41c-1.04,0.28 -1.04,0.75 0,1.03c1.04,0.28 2.12,1.37 2.41,2.41c0.28,1.04 0.75,1.04 1.03,0c0.28,-1.04 1.37,-2.12 2.41,-2.41z" />
		<path id="star-03" class="shp2" d="M9.7,8.13c0.79,-0.22 0.79,-0.57 0,-0.79c-0.79,-0.22 -1.62,-1.04 -1.84,-1.84c-0.22,-0.79 -0.57,-0.79 -0.79,0c-0.22,0.79 -1.04,1.62 -1.84,1.84c-0.79,0.22 -0.79,0.57 0,0.79c0.79,0.22 1.62,1.04 1.84,1.84c0.22,0.79 0.57,0.79 0.79,0c0.22,-0.79 1.04,-1.62 1.84,-1.84z" />
		<path id="cloud-large-night" class="shp3" d="M47.24,43.96c5.92,0 10.72,-4.72 10.72,-10.54c0,-5.82 -4.8,-10.54 -10.72,-10.54c-0.04,0 -0.07,0 -0.11,0.01c-0.95,-8.41 -8.2,-14.94 -17.01,-14.94c-6.95,0 -12.94,4.08 -15.62,9.93c-0.08,0 -0.17,-0.01 -0.25,-0.01c-7.33,0 -13.27,5.84 -13.27,13.05c0,7.21 5.94,13.05 13.27,13.05" />
		<path id="cloud-small" class="shp4" d="M61.18,43.99c3.74,0 6.77,-3.01 6.77,-6.73c0,-3.72 -3.03,-6.73 -6.77,-6.73c-0.02,0 -0.05,0 -0.07,0c-0.6,-5.37 -5.18,-9.54 -10.74,-9.54c-4.39,0 -8.17,2.6 -9.86,6.34c-0.05,0 -0.11,0 -0.16,0c-4.63,0 -8.38,3.73 -8.38,8.33c0,4.6 3.75,8.33 8.38,8.33" />
	</g>
</svg>