<svg xmlns="http://www.w3.org/2000/svg" viewBox="0 0 66 35" width="66" height="35">
	<defs>
		<linearGradient id="grd1" gradientUnits="userSpaceOnUse"  x1="16.454" y1="34.972" x2="50.472" y2="0.954">
			<stop offset="0" stop-color="#00ccff"  />
			<stop offset="1" stop-color="#5ddefe"  />
		</linearGradient>
	</defs>
	<style>
		tspan { white-space:pre }
		.shp0 { fill: url(#grd1) } 
	</style>
	<g id="Breezy">
		<path id="breezy" class="shp0" d="M55.39,29.88c0,-2.81 -2.29,-5.1 -5.11,-5.1c-0.02,0 -0.04,0.01 -0.06,0.01c-0.02,0 -0.04,-0.01 -0.06,-0.01h-33.85c-0.88,0 -1.59,0.71 -1.59,1.58c0,0.87 0.71,1.58 1.59,1.58h29.26c-0.25,0.6 -0.39,1.25 -0.39,1.93c0,2.81 2.29,5.1 5.11,5.1c2.82,0 5.11,-2.28 5.11,-5.1zM65.97,21.13c0,-2.81 -2.29,-5.1 -5.11,-5.1c-0.02,0 -0.04,0.01 -0.06,0.01c-0.02,0 -0.04,-0.01 -0.06,-0.01h-58.19c-0.88,0 -1.59,0.71 -1.59,1.58c0,0.87 0.71,1.58 1.59,1.58h53.59c-0.25,0.6 -0.39,1.25 -0.39,1.93c0,2.81 2.29,5.1 5.11,5.1c2.82,0 5.11,-2.28 5.11,-5.1zM50.28,0.95c-2.82,0 -5.11,2.28 -5.11,5.1c0,0.68 0.14,1.34 0.39,1.93h-18.68c-0.88,0 -1.59,0.71 -1.59,1.58c0,0.87 0.71,1.58 1.59,1.58h23.28c0.02,0 0.04,-0.01 0.06,-0.01c0.02,0 0.04,0.01 0.06,0.01c2.82,0 5.11,-2.28 5.11,-5.1c0,-2.81 -2.29,-5.1 -5.11,-5.1z" />
	</g>
</svg>